<svg xmlns="http://www.w3.org/2000/svg" viewBox="0 0 487.482 487.482"><path d="M477.482 63.277H10c-5.523 0-10 4.478-10 10v340.928c0 5.522 4.477 10 10 10h467.482c5.522 0 10-4.478 10-10V73.277c0-5.522-4.477-10-10-10zm-10 20v235.236l-104.018-80.07a9.998 9.998 0 0 0-11.555-.457l-68.298 44.456-134.745-92.417a10 10 0 0 0-10.706-.384L20 258.777v-175.5h447.482zM20 404.205V281.948l122.786-71.841 135.024 92.608a10.004 10.004 0 0 0 11.111.134l67.959-44.235 110.602 85.138v60.453H20z"/><path d="M280.707 218.281c26.063 0 47.266-21.202 47.266-47.264 0-26.058-21.203-47.258-47.266-47.258-26.062 0-47.264 21.2-47.264 47.258 0 26.062 21.202 47.264 47.264 47.264zm0-74.521c15.034 0 27.266 12.228 27.266 27.258 0 15.033-12.231 27.264-27.266 27.264-15.033 0-27.264-12.23-27.264-27.264 0-15.031 12.231-27.258 27.264-27.258z"/></svg>