<?xml version="1.0" encoding="utf-8"?>
<svg xmlns="http://www.w3.org/2000/svg">
<symbol id="icon-arrow-down" viewBox="0 0 501.5 501.5">
  <g>
    <path fill="currentColor" d="M199.33 410.622l-55.77-55.508L247.425 250.75 143.56 146.384l55.77-55.507L358.44 250.75z"/>
  </g>

</symbol>
<symbol id="icon-cart-add" viewBox="0 0 24 24"><path d="M11 9h2V6h3V4h-3V1h-2v3H8v2h3v3zm-4 9c-1.1 0-1.99.9-1.99 2S5.9 22 7 22s2-.9 2-2-.9-2-2-2zm10 0c-1.1 0-1.99.9-1.99 2s.89 2 1.99 2 2-.9 2-2-.9-2-2-2zm-9.83-3.25l.03-.12.9-1.63h7.45c.75 0 1.41-.41 1.75-1.03l3.86-7.01L19.42 4h-.01l-1.1 2-2.76 5H8.53l-.13-.27L6.16 6l-.95-2-.94-2H1v2h2l3.6 7.59-1.35 2.45c-.16.28-.25.61-.25.96 0 1.1.9 2 2 2h12v-2H7.42c-.13 0-.25-.11-.25-.25z" fill="currentColor"/>
</symbol>
<symbol id="icon-cart" viewBox="0 0 475.084 475.085">
  <path d="M365.446 401.998c0 10.092 3.58 18.702 10.71 25.834 7.133 7.14 15.75 10.71 25.846 10.71 10.08 0 18.698-3.57 25.83-10.71 7.14-7.132 10.71-15.742 10.71-25.834s-3.567-18.702-10.71-25.84c-7.132-7.133-15.75-10.705-25.83-10.705-10.096 0-18.713 3.572-25.845 10.704-7.132 7.14-10.71 15.75-10.71 25.84zM469.658 78.51c-3.618-3.617-7.898-5.426-12.848-5.426H113.918c-.193-1.33-.62-3.756-1.287-7.277-.664-3.523-1.186-6.33-1.567-8.425-.383-2.087-1.093-4.61-2.142-7.56-1.046-2.953-2.283-5.287-3.71-6.996-1.425-1.718-3.33-3.19-5.71-4.43-2.376-1.233-5.09-1.853-8.134-1.853h-73.09c-4.95 0-9.233 1.812-12.85 5.424C1.81 45.583 0 49.867 0 54.817s1.81 9.23 5.426 12.846c3.62 3.617 7.902 5.424 12.85 5.424h58.237l50.532 234.976c-.378.76-2.33 4.373-5.852 10.848-3.52 6.477-6.328 12.137-8.42 16.99-2.093 4.86-3.14 8.616-3.14 11.28 0 4.947 1.81 9.23 5.424 12.853 3.62 3.606 7.902 5.42 12.85 5.42h292.348c4.95 0 9.233-1.813 12.848-5.42 3.62-3.62 5.427-7.905 5.427-12.854 0-4.95-1.807-9.234-5.427-12.848-3.614-3.613-7.898-5.427-12.847-5.427h-262.66c4.57-9.138 6.854-15.222 6.854-18.268 0-1.91-.238-4.004-.715-6.283s-1.047-4.805-1.713-7.57c-.667-2.75-1.093-4.798-1.283-6.132l298.075-34.83c4.753-.576 8.658-2.615 11.703-6.14 3.045-3.52 4.564-7.563 4.564-12.134V91.363c-.002-4.948-1.806-9.23-5.426-12.853zM109.632 401.998c0 10.092 3.567 18.702 10.706 25.834 7.14 7.14 15.75 10.71 25.84 10.71 10.086 0 18.7-3.57 25.836-10.71 7.14-7.132 10.71-15.742 10.71-25.834s-3.568-18.702-10.71-25.84c-7.137-7.133-15.75-10.705-25.835-10.705-10.09 0-18.706 3.572-25.843 10.704-7.135 7.14-10.706 15.75-10.706 25.84z" fill="currentColor"/>

</symbol>
<symbol id="icon-close" viewBox="0 0 149.337 149.337">
  <path fill="currentColor" d="M149.337 143.96L80.044 74.668l69.292-69.292L143.96 0 74.668 69.292 5.378 0 0 5.376l69.292 69.292L0 143.96l5.376 5.376 69.292-69.292 69.293 69.292z"/>

</symbol>
<symbol id="icon-image" viewBox="0 0 487.482 487.482"><path d="M477.482 63.277H10c-5.523 0-10 4.478-10 10v340.928c0 5.522 4.477 10 10 10h467.482c5.522 0 10-4.478 10-10V73.277c0-5.522-4.477-10-10-10zm-10 20v235.236l-104.018-80.07a9.998 9.998 0 0 0-11.555-.457l-68.298 44.456-134.745-92.417a10 10 0 0 0-10.706-.384L20 258.777v-175.5h447.482zM20 404.205V281.948l122.786-71.841 135.024 92.608a10.004 10.004 0 0 0 11.111.134l67.959-44.235 110.602 85.138v60.453H20z"/><path d="M280.707 218.281c26.063 0 47.266-21.202 47.266-47.264 0-26.058-21.203-47.258-47.266-47.258-26.062 0-47.264 21.2-47.264 47.258 0 26.062 21.202 47.264 47.264 47.264zm0-74.521c15.034 0 27.266 12.228 27.266 27.258 0 15.033-12.231 27.264-27.266 27.264-15.033 0-27.264-12.23-27.264-27.264 0-15.031 12.231-27.258 27.264-27.258z"/>
</symbol></svg>